<mxfile host="app.diagrams.net" modified="2023-06-02T04:34:16.619Z" agent="5.0 (Windows NT 10.0; Win64; x64) AppleWebKit/537.36 (KHTML, like Gecko) Chrome/113.0.0.0 Safari/537.36 Edg/113.0.1774.50" etag="ncDI2zeu3-JMDhTKpSkP" version="21.0.4" type="github">
  <diagram name="Page-1" id="ZwdiqIXqaAQdnmQPxWKj">
    <mxGraphModel dx="1434" dy="764" grid="1" gridSize="10" guides="1" tooltips="1" connect="1" arrows="1" fold="1" page="1" pageScale="1" pageWidth="1654" pageHeight="1169" math="0" shadow="0">
      <root>
        <mxCell id="0" />
        <mxCell id="1" parent="0" />
        <mxCell id="jynaEDO-RNVVXrA4uN62-24" value="" style="rounded=0;whiteSpace=wrap;html=1;dashed=1;dashPattern=8 8;fillColor=#3399FF;" vertex="1" parent="1">
          <mxGeometry x="260" y="427" width="1070" height="223" as="geometry" />
        </mxCell>
        <mxCell id="jynaEDO-RNVVXrA4uN62-23" value="" style="rounded=0;whiteSpace=wrap;html=1;dashed=1;dashPattern=8 8;fillColor=#00FF00;" vertex="1" parent="1">
          <mxGeometry x="260" y="110" width="1070" height="220" as="geometry" />
        </mxCell>
        <mxCell id="jynaEDO-RNVVXrA4uN62-9" value="" style="rounded=1;whiteSpace=wrap;html=1;" vertex="1" parent="1">
          <mxGeometry x="1060" y="176" width="250" height="420" as="geometry" />
        </mxCell>
        <mxCell id="jynaEDO-RNVVXrA4uN62-10" value="" style="rounded=1;whiteSpace=wrap;html=1;" vertex="1" parent="1">
          <mxGeometry x="719.5" y="176" width="250" height="420" as="geometry" />
        </mxCell>
        <mxCell id="jynaEDO-RNVVXrA4uN62-11" value="" style="rounded=1;whiteSpace=wrap;html=1;" vertex="1" parent="1">
          <mxGeometry x="269.5" y="176" width="250" height="420" as="geometry" />
        </mxCell>
        <mxCell id="jynaEDO-RNVVXrA4uN62-14" style="edgeStyle=orthogonalEdgeStyle;rounded=0;orthogonalLoop=1;jettySize=auto;html=1;" edge="1" parent="1" source="jynaEDO-RNVVXrA4uN62-1" target="jynaEDO-RNVVXrA4uN62-6">
          <mxGeometry relative="1" as="geometry">
            <Array as="points">
              <mxPoint x="580" y="252" />
              <mxPoint x="580" y="386" />
            </Array>
          </mxGeometry>
        </mxCell>
        <mxCell id="jynaEDO-RNVVXrA4uN62-1" value="ADFS_WAP01" style="aspect=fixed;html=1;points=[];align=center;image;fontSize=12;image=img/lib/azure2/compute/Virtual_Machine.svg;" vertex="1" parent="1">
          <mxGeometry x="360" y="220" width="69" height="64" as="geometry" />
        </mxCell>
        <mxCell id="jynaEDO-RNVVXrA4uN62-15" style="edgeStyle=orthogonalEdgeStyle;rounded=0;orthogonalLoop=1;jettySize=auto;html=1;" edge="1" parent="1" source="jynaEDO-RNVVXrA4uN62-2" target="jynaEDO-RNVVXrA4uN62-6">
          <mxGeometry relative="1" as="geometry">
            <Array as="points">
              <mxPoint x="580" y="512" />
              <mxPoint x="580" y="386" />
            </Array>
          </mxGeometry>
        </mxCell>
        <mxCell id="jynaEDO-RNVVXrA4uN62-2" value="ADFS_WAP02" style="aspect=fixed;html=1;points=[];align=center;image;fontSize=12;image=img/lib/azure2/compute/Virtual_Machine.svg;" vertex="1" parent="1">
          <mxGeometry x="360" y="480" width="69" height="64" as="geometry" />
        </mxCell>
        <mxCell id="jynaEDO-RNVVXrA4uN62-18" style="edgeStyle=orthogonalEdgeStyle;rounded=0;orthogonalLoop=1;jettySize=auto;html=1;" edge="1" parent="1" source="jynaEDO-RNVVXrA4uN62-3" target="jynaEDO-RNVVXrA4uN62-7">
          <mxGeometry relative="1" as="geometry" />
        </mxCell>
        <mxCell id="jynaEDO-RNVVXrA4uN62-3" value="ADFS01" style="aspect=fixed;html=1;points=[];align=center;image;fontSize=12;image=img/lib/azure2/compute/Virtual_Machine.svg;" vertex="1" parent="1">
          <mxGeometry x="810" y="220" width="69" height="64" as="geometry" />
        </mxCell>
        <mxCell id="jynaEDO-RNVVXrA4uN62-19" style="edgeStyle=orthogonalEdgeStyle;rounded=0;orthogonalLoop=1;jettySize=auto;html=1;" edge="1" parent="1" source="jynaEDO-RNVVXrA4uN62-4" target="jynaEDO-RNVVXrA4uN62-8">
          <mxGeometry relative="1" as="geometry" />
        </mxCell>
        <mxCell id="jynaEDO-RNVVXrA4uN62-4" value="ADFS02" style="aspect=fixed;html=1;points=[];align=center;image;fontSize=12;image=img/lib/azure2/compute/Virtual_Machine.svg;" vertex="1" parent="1">
          <mxGeometry x="800" y="490" width="69" height="64" as="geometry" />
        </mxCell>
        <mxCell id="jynaEDO-RNVVXrA4uN62-12" style="edgeStyle=orthogonalEdgeStyle;rounded=0;orthogonalLoop=1;jettySize=auto;html=1;" edge="1" parent="1" source="jynaEDO-RNVVXrA4uN62-5" target="jynaEDO-RNVVXrA4uN62-1">
          <mxGeometry relative="1" as="geometry">
            <Array as="points">
              <mxPoint x="310" y="386" />
              <mxPoint x="310" y="252" />
            </Array>
          </mxGeometry>
        </mxCell>
        <mxCell id="jynaEDO-RNVVXrA4uN62-13" style="edgeStyle=orthogonalEdgeStyle;rounded=0;orthogonalLoop=1;jettySize=auto;html=1;" edge="1" parent="1" source="jynaEDO-RNVVXrA4uN62-5" target="jynaEDO-RNVVXrA4uN62-2">
          <mxGeometry relative="1" as="geometry">
            <Array as="points">
              <mxPoint x="310" y="386" />
              <mxPoint x="310" y="512" />
            </Array>
          </mxGeometry>
        </mxCell>
        <mxCell id="jynaEDO-RNVVXrA4uN62-5" value="ELB01" style="aspect=fixed;html=1;points=[];align=center;image;fontSize=12;image=img/lib/azure2/networking/Load_Balancers.svg;" vertex="1" parent="1">
          <mxGeometry x="160" y="350" width="72" height="72" as="geometry" />
        </mxCell>
        <mxCell id="jynaEDO-RNVVXrA4uN62-16" style="edgeStyle=orthogonalEdgeStyle;rounded=0;orthogonalLoop=1;jettySize=auto;html=1;" edge="1" parent="1" source="jynaEDO-RNVVXrA4uN62-6" target="jynaEDO-RNVVXrA4uN62-3">
          <mxGeometry relative="1" as="geometry">
            <Array as="points">
              <mxPoint x="700" y="386" />
              <mxPoint x="700" y="252" />
            </Array>
          </mxGeometry>
        </mxCell>
        <mxCell id="jynaEDO-RNVVXrA4uN62-17" style="edgeStyle=orthogonalEdgeStyle;rounded=0;orthogonalLoop=1;jettySize=auto;html=1;" edge="1" parent="1" source="jynaEDO-RNVVXrA4uN62-6" target="jynaEDO-RNVVXrA4uN62-4">
          <mxGeometry relative="1" as="geometry">
            <Array as="points">
              <mxPoint x="700" y="386" />
              <mxPoint x="700" y="522" />
            </Array>
          </mxGeometry>
        </mxCell>
        <mxCell id="jynaEDO-RNVVXrA4uN62-6" value="ILB01" style="aspect=fixed;html=1;points=[];align=center;image;fontSize=12;image=img/lib/azure2/networking/Load_Balancers.svg;" vertex="1" parent="1">
          <mxGeometry x="600" y="350" width="72" height="72" as="geometry" />
        </mxCell>
        <mxCell id="jynaEDO-RNVVXrA4uN62-7" value="ADDS01" style="aspect=fixed;html=1;points=[];align=center;image;fontSize=12;image=img/lib/azure2/compute/Virtual_Machine.svg;" vertex="1" parent="1">
          <mxGeometry x="1160" y="220" width="69" height="64" as="geometry" />
        </mxCell>
        <mxCell id="jynaEDO-RNVVXrA4uN62-8" value="ADDS02" style="aspect=fixed;html=1;points=[];align=center;image;fontSize=12;image=img/lib/azure2/compute/Virtual_Machine.svg;" vertex="1" parent="1">
          <mxGeometry x="1160" y="490" width="69" height="64" as="geometry" />
        </mxCell>
        <mxCell id="jynaEDO-RNVVXrA4uN62-20" value="WAP_Subnet01" style="aspect=fixed;html=1;points=[];align=center;image;fontSize=12;image=img/lib/azure2/networking/Virtual_Networks.svg;" vertex="1" parent="1">
          <mxGeometry x="293" y="580" width="50.25" height="30" as="geometry" />
        </mxCell>
        <mxCell id="jynaEDO-RNVVXrA4uN62-21" value="ADFS_Subnet01" style="aspect=fixed;html=1;points=[];align=center;image;fontSize=12;image=img/lib/azure2/networking/Virtual_Networks.svg;" vertex="1" parent="1">
          <mxGeometry x="749.75" y="580" width="50.25" height="30" as="geometry" />
        </mxCell>
        <mxCell id="jynaEDO-RNVVXrA4uN62-22" value="" style="aspect=fixed;html=1;points=[];align=center;image;fontSize=12;image=img/lib/azure2/networking/Virtual_Networks.svg;" vertex="1" parent="1">
          <mxGeometry x="1090" y="580" width="50.25" height="30" as="geometry" />
        </mxCell>
        <mxCell id="jynaEDO-RNVVXrA4uN62-25" value="" style="aspect=fixed;html=1;points=[];align=center;image;fontSize=12;image=img/lib/azure2/compute/Virtual_Machines_Classic.svg;" vertex="1" parent="1">
          <mxGeometry x="40" y="680" width="60" height="55.66" as="geometry" />
        </mxCell>
      </root>
    </mxGraphModel>
  </diagram>
</mxfile>
